<?xml version="1.0" encoding="UTF-8" standalone="no"?>
<svg width="32px" height="32px" viewBox="0 0 32 32" version="1.1" xmlns="http://www.w3.org/2000/svg" xmlns:xlink="http://www.w3.org/1999/xlink">
    <!-- Generator: Sketch 44 (41411) - http://www.bohemiancoding.com/sketch -->
    <title>location-result-svg</title>
    <desc>Created with Sketch.</desc>
    <defs></defs>
    <g id="Page-1" stroke="none" stroke-width="1" fill="none" fill-rule="evenodd">
        <g id="location-result-svg">
            <g id="Group">
                <circle id="Oval-2" fill="#1EA0E4" cx="16" cy="16" r="16"></circle>
                <path d="M19.3333333,13.2222222 C19.3333333,12.3634259 19.0295139,11.6302083 18.421875,11.0225694 C17.8142361,10.4149306 17.0810185,10.1111111 16.2222222,10.1111111 C15.3634259,10.1111111 14.6302083,10.4149306 14.0225694,11.0225694 C13.4149306,11.6302083 13.1111111,12.3634259 13.1111111,13.2222222 C13.1111111,14.0810185 13.4149306,14.8142361 14.0225694,15.421875 C14.6302083,16.0295139 15.3634259,16.3333333 16.2222222,16.3333333 C17.0810185,16.3333333 17.8142361,16.0295139 18.421875,15.421875 C19.0295139,14.8142361 19.3333333,14.0810185 19.3333333,13.2222222 L19.3333333,13.2222222 Z M22.0434028,15.3975694 L17.6197917,24.8038194 C17.490162,25.0711806 17.2977431,25.2818287 17.0425347,25.4357639 C16.7873264,25.5896991 16.5138889,25.6666667 16.2222222,25.6666667 C15.9305556,25.6666667 15.6571181,25.5896991 15.4019097,25.4357639 C15.1467014,25.2818287 14.9583333,25.0711806 14.8368056,24.8038194 L10.4010417,15.3975694 C10.1336806,14.8304398 10,14.1053241 10,13.2222222 C10,11.5046296 10.6076389,10.0381944 11.8229167,8.82291667 C13.0381944,7.60763889 14.5046296,7 16.2222222,7 C17.9398148,7 19.40625,7.60763889 20.6215278,8.82291667 C21.8368056,10.0381944 22.4444444,11.5046296 22.4444444,13.2222222 C22.4444444,14.1053241 22.3107639,14.8304398 22.0434028,15.3975694 Z" id="Shape" fill="#FFFFFF"></path>
            </g>
        </g>
    </g>
</svg>